<!DOCTYPE svg PUBLIC "-//W3C//DTD SVG 1.1//EN" "http://www.w3.org/Graphics/SVG/1.1/DTD/svg11.dtd">
<!-- Uploaded to: SVG Repo, www.svgrepo.com, Transformed by: SVG Repo Mixer Tools -->
<svg fill="#000000" height="800px" width="800px" version="1.1" id="Capa_1" xmlns="http://www.w3.org/2000/svg" xmlns:xlink="http://www.w3.org/1999/xlink" viewBox="0 0 463.878 463.878" xml:space="preserve">
<g id="SVGRepo_bgCarrier" stroke-width="0"/>
<g id="SVGRepo_tracerCarrier" stroke-linecap="round" stroke-linejoin="round"/>
<g id="SVGRepo_iconCarrier"> <path d="M463.808,114c-0.313-2.634-1.66-5.035-3.744-6.676l-48.686-38.33c-4.341-3.417-10.628-2.668-14.043,1.671l-34.846,44.26 c-6.771,8.601-9.789,19.324-8.495,30.194c0.892,7.489,3.756,14.43,8.265,20.238l-17.185,22.025l-39.988-19.695l9.712-28.087 c1.212,0.109,2.427,0.168,3.64,0.168c6.094,0,12.158-1.377,17.807-4.108c9.855-4.765,17.265-13.083,20.864-23.42l18.522-53.198 c0.872-2.505,0.713-5.253-0.441-7.641s-3.21-4.219-5.715-5.091l-58.518-20.374c-5.214-1.816-10.916,0.94-12.732,6.156 l-18.522,53.198c-6.298,18.091,0.878,37.661,16.208,47.73l-3.796,10.977h-50.178v-19.878c17.779-4.475,30.982-20.594,30.982-39.743 V28.045c0-5.523-4.477-10-10-10h-61.963c-5.523,0-10,4.477-10,10v56.331c0,19.148,13.202,35.266,30.981,39.742v19.878H171.76 l-3.795-10.976c15.331-10.069,22.508-29.64,16.21-47.731l-18.522-53.198c-1.816-5.216-7.517-7.971-12.732-6.156L94.402,46.309 c-2.505,0.872-4.561,2.703-5.715,5.091s-1.313,5.136-0.441,7.641l18.522,53.198c3.599,10.338,11.009,18.656,20.864,23.42 c5.649,2.731,11.712,4.108,17.807,4.108c1.213,0,2.426-0.059,3.638-0.168l9.712,28.087l-39.988,19.695l-17.184-22.024 c4.509-5.808,7.374-12.749,8.265-20.239c1.293-10.87-1.724-21.593-8.495-30.194l-34.846-44.26 c-3.416-4.339-9.703-5.087-14.043-1.671l-48.686,38.33C1.73,108.965,0.383,111.366,0.07,114c-0.313,2.634,0.432,5.284,2.073,7.368 l34.846,44.26c8.077,10.258,20.101,15.614,32.243,15.614c5.654,0,11.333-1.168,16.65-3.539l14.594,18.705l-10.874,5.356 c-2.682,1.321-4.633,3.773-5.316,6.684c-0.684,2.911-0.029,5.975,1.784,8.352l100.217,131.365l-38.378,50.063 c-1.818,2.373-2.48,5.434-1.804,8.346s2.62,5.369,5.298,6.697l37.475,18.586l-0.342,2.736c-0.356,2.846,0.527,5.708,2.426,7.859 c1.898,2.151,4.628,3.382,7.497,3.382h66.96c2.869,0,5.599-1.232,7.497-3.382c1.898-2.15,2.782-5.012,2.426-7.859l-0.342-2.736 l37.475-18.586c2.678-1.328,4.622-3.785,5.298-6.697s0.014-5.973-1.804-8.346l-38.378-50.062L377.807,216.8 c1.813-2.377,2.468-5.441,1.784-8.352c-0.684-2.911-2.634-5.363-5.316-6.684l-10.875-5.356l14.594-18.705 c5.317,2.371,10.996,3.539,16.651,3.539c12.141,0,24.167-5.357,32.243-15.614l34.846-44.26 C463.376,119.284,464.121,116.633,463.808,114z M210.957,84.376V38.045h41.963v46.331c0,11.569-9.412,20.982-20.981,20.982h0 C220.369,105.358,210.957,95.945,210.957,84.376z M52.702,153.255l-28.66-36.402l32.971-25.958l28.66,36.402 c3.467,4.404,5.011,9.894,4.349,15.459c-0.663,5.565-3.452,10.539-7.856,14.006v0C73.078,163.918,59.86,162.346,52.702,153.255z M298.592,91.865l15.234-43.755l39.63,13.798l-15.234,43.754c-1.843,5.293-5.636,9.551-10.682,11.991 c-5.045,2.439-10.739,2.769-16.032,0.926v0C300.582,114.775,294.788,102.791,298.592,91.865z M280.465,163.996L246.23,338.18 h-28.583l-34.234-174.183H280.465z M136.338,117.654c-5.046-2.439-8.839-6.698-10.682-11.991l-15.234-43.754l39.63-13.798 l15.234,43.755c3.804,10.926-1.99,22.91-12.917,26.714C147.078,120.422,141.383,120.093,136.338,117.654z M167.313,185.783 l27.676,140.814l-85.644-112.263L167.313,185.783z M171.174,400.752l25.803-33.658l-5.471,43.742L171.174,400.752z M209.786,425.833 l8.461-67.653h27.381l8.461,67.653H209.786z M272.369,410.836l-5.471-43.744l25.804,33.66L272.369,410.836z M268.89,326.595 l27.675-140.811l57.968,28.55L268.89,326.595z M411.176,153.255c-7.158,9.091-20.375,10.663-29.465,3.507v0 c-4.404-3.467-7.193-8.441-7.856-14.006c-0.662-5.565,0.882-11.055,4.349-15.458l28.66-36.403l32.971,25.958L411.176,153.255z"/> </g>
</svg>